# xmcd
#
# Track frame offsets: 
#        150
#        20684
#        47519
#        67213
#        87880
#        112380
#        141624
#        158164
#        178633
#        199075
#        227992
#        247514
#
# Disc length: 3590 seconds
#
# Revision: 3
# Processed by: cddbd v1.5.2PL0 Copyright (c) Steve Scherf et al.
# Submitted via: ExactAudioCopy v0.95b4
#
DISCID=ab0e040c
DTITLE=Allison, Bernard - Funkifino
DYEAR=1996
DGENRE=Blues
TTITLE0=Fantasy
TTITLE1=Live together
TTITLE2=Slippin' and slidin'
TTITLE3=Feel my groove
TTITLE4=Looking for an answer
TTITLE5=If
TTITLE6=I'm beginning to wonder
TTITLE7=Waiting for the bass to come
TTITLE8=Ain't no fun to me
TTITLE9=Family affair
TTITLE10=Too many woman
TTITLE11=If I should
EXTD=
EXTT0=
EXTT1=
EXTT2=
EXTT3=
EXTT4=
EXTT5=
EXTT6=
EXTT7=
EXTT8=
EXTT9=
EXTT10=
EXTT11=
PLAYORDER=
